<?xml version="1.0" encoding="UTF-8"?>
<svg id="Camada_1" data-name="Camada 1" xmlns="http://www.w3.org/2000/svg" viewBox="0 0 1632.29 542.89">
  <defs>
    <style>
      .cls-1 {
        fill: #fff200;
      }
    </style>
  </defs>
  <path class="cls-1" d="M1331.82,161.85c-20.86-10.79-44.5-16.18-70.9-16.18s-49.54,5.4-70.27,16.18c-20.72,10.79-36.9,25.98-48.55,45.57-11.64,19.59-17.46,42.02-17.46,67.28v4.69c0,22.16-4.92,41.66-23.71,41.66-16.29,0-19.85-16.88-19.99-31.77v-58.36c0-50.38-21.69-85.26-73.39-85.26-36.33,0-64.27,20.49-79.85,41.62-8.38-22.57-28.97-41.62-68.74-41.62-36.51,0-52.54,14.02-67.3,32.05h-5.13v-16.75c0-3.8-3.08-6.87-6.87-6.87h-81.74c-3.8,0-6.87,3.08-6.87,6.87v226.37c0,3.8,3.08,6.87,6.87,6.87h81.74c3.8,0,6.87-3.08,6.87-6.87v-131.15c0-19.44,8.31-31.34,26.3-31.34s24,14.61,24,32.4v130.1c0,3.8,3.08,6.87,6.87,6.87h81.77c3.8,0,6.87-3.08,6.87-6.87v-130.25c0-20.56,11.05-32.24,28.11-32.24,18.67,0,24.96,14.61,24.96,32.4v61.9l.55.43-.55.14c0,46.19,25.34,82.92,74.28,82.92,23.56,0,47.78-12.08,64.93-37.05v95.33c0,3.8,3.08,6.87,6.87,6.87h75.68c3.8,0,6.87-3.08,6.87-6.87v-84.44c5.68,3.98,11.85,7.39,18.52,10.22,6.67,2.84,13.63,4.9,20.87,6.18,7.24,1.28,14.83,1.91,22.78,1.91,22.71,0,43.36-4.97,61.96-14.9,18.59-9.93,33.22-24.06,43.86-42.37,10.64-18.31,15.97-39.67,15.97-64.09s-5.82-47.12-17.46-66.43c-11.64-19.31-27.89-34.35-48.76-45.14ZM1302.22,296.84c-3.98,7.66-9.51,13.63-16.61,17.88-7.1,4.26-15.33,6.39-24.7,6.39-8.8,0-16.68-2.13-23.63-6.39-6.96-4.26-12.5-10.07-16.61-17.46-4.12-7.38-6.18-16.04-6.18-25.98s2.06-19.23,6.18-27.04c4.11-7.81,9.72-13.91,16.82-18.31,7.09-4.4,15.04-6.6,23.85-6.6s17.18,2.2,24.27,6.6c7.09,4.41,12.63,10.44,16.61,18.1,3.97,7.66,5.96,16.47,5.96,26.4s-1.99,18.74-5.96,26.4Z"/>
  <path class="cls-1" d="M571.77,284.84c0,8.39-1.68,15.79-5,22.15-3.33,6.37-7.9,11.37-13.69,14.99-5.8,3.62-12.31,5.43-19.54,5.43s-14.2-1.81-19.98-5.43c-5.8-3.62-10.28-8.62-13.47-14.99-3.19-6.36-4.77-13.76-4.77-22.15v-123.87c0-3.8-3.08-6.87-6.87-6.87h-77.04c-3.8,0-6.87,3.08-6.87,6.87v110.4c0,26.93,5.43,50.23,16.3,69.93,10.86,19.7,25.97,34.83,45.38,45.4,19.39,10.56,41.84,15.85,67.33,15.85s47.56-5.3,67.11-15.85c19.54-10.57,34.67-25.7,45.38-45.4,10.71-19.7,16.07-43,16.07-69.93v-110.4c0-3.8-3.08-6.87-6.87-6.87h-76.6c-3.8,0-6.87,3.08-6.87,6.87v123.87Z"/>
  <path class="cls-1" d="M1465.64,301.71c-27.83,0-50.39,22.56-50.39,50.39s22.56,50.39,50.39,50.39,50.39-22.56,50.39-50.39-22.56-50.39-50.39-50.39Z"/>
  <path class="cls-1" d="M1463.11,284.04h5.06c1.75,0,3.42-.64,4.69-1.83,17.65-16.54,37.27-39.02,37.27-76.71v-101.75c0-3.8-3.08-6.87-6.87-6.87h-75.25c-3.8,0-6.87,3.08-6.87,6.87v101.75c0,37.69,19.62,60.17,37.28,76.71,1.27,1.19,2.95,1.83,4.69,1.83Z"/>
  <path class="cls-1" d="M365.9,250.01c10.67-16.65,16.01-36.93,16.01-60.84,0-7.42-.74-14.88-2.31-22.14-7.34-33.98-27.06-59.37-59.2-76.12-20.22-10.53-43.99-15.8-71.33-15.8-29.33,0-53.89,5.34-73.67,16.02-19.8,10.68-34.6,26.2-44.42,46.55-9.82,20.36-14.73,45.06-14.73,74.1v176.78c0,3.8,3.08,6.87,6.87,6.87h79.79c3.8,0,6.87-3.08,6.87-6.87v-84.97l56.18,88.65c1.26,1.99,3.45,3.19,5.81,3.19h85.63c5.45,0,8.74-6.05,5.76-10.62l-59.38-91.36c5.34-1.57,10.46-3.38,15.34-5.44,20.5-8.68,36.09-21.36,46.77-38.01ZM214.07,178.47c2.84-7.97,7.33-14.37,13.45-19.22,6.12-4.84,14.02-7.26,23.71-7.26,9.11,0,16.8,2,23.06,5.98,6.26,3.99,11.1,9.12,14.52,15.38,3.42,6.27,5.13,12.81,5.13,19.65,0,7.41-1.86,13.81-5.55,19.22-3.71,5.41-8.91,9.61-15.59,12.6-6.7,2.99-14.74,4.49-24.13,4.49h-38.87v-23.49c0-10.25,1.42-19.36,4.27-27.34Z"/>
</svg>